<?xml version="1.0" encoding="UTF-8"?>
<svg width="35px" height="39px" viewBox="0 0 35 39" version="1.1" xmlns="http://www.w3.org/2000/svg" xmlns:xlink="http://www.w3.org/1999/xlink">
    <title>VI</title>
    <g id="Page-1" stroke="none" stroke-width="1" fill="none" fill-rule="evenodd">
        <g id="Graphik-Copy-2" transform="translate(-381.000000, -567.000000)" fill-rule="nonzero">
            <g id="Chat-Copy" transform="translate(107.000000, 46.000000)">
                <g id="Group-8">
                    <g id="Group-9" transform="translate(0.000000, 490.000000)">
                        <g id="ICONS-FINAL" transform="translate(72.000000, 29.000000)">
                            <g id="VI" transform="translate(202.000000, 2.000000)">
                                <path d="M33.8692183,8.47172821 C33.2204138,6.14544933 31.9357808,4.30788416 30.0542476,3.00790434 C27.679623,1.36256695 24.9481563,0.782625752 22.5897516,0.427493686 C19.3262643,-0.0612208707 16.3709602,-0.129640642 13.5519039,0.215717767 C10.9112698,0.541527194 8.92268413,1.05956356 7.10927523,1.89689441 C3.55382635,3.53897392 1.41925899,6.19432012 0.767210636,9.7879983 C0.449296827,11.5343368 0.235190913,13.1112544 0.111918466,14.6164944 C-0.173555532,18.0961391 0.085966284,21.175038 0.903460005,24.0291285 C1.70148917,26.8115406 3.09317471,28.7989785 5.15961779,30.1054741 C5.68514905,30.4378002 6.35990578,30.6788987 7.01195413,30.9102236 C7.38177313,31.0405474 7.74185986,31.1676133 8.0370653,31.3077107 C8.30956321,31.4347766 8.30956321,31.4575835 8.3063194,31.6856496 C8.28361103,33.6633131 8.3063194,37.5404456 8.3063194,37.5404456 L8.31280786,38.3680012 L9.79208221,38.3680012 L10.0321395,38.1334184 C10.1910964,37.9835465 13.8568424,34.4257075 15.1641838,32.9921461 L15.3426044,32.7934017 C15.5664426,32.5327541 15.5664426,32.5327541 15.7967676,32.5294963 C17.561516,32.493657 19.3651926,32.4252372 21.1558931,32.3274948 C23.3261449,32.2102034 25.8402619,31.9984267 28.2083989,31.007966 C30.375406,30.0989584 31.9584891,28.6556224 32.9089876,26.720314 C33.9016589,24.7002955 34.4888268,22.5141149 34.7094204,20.0347045 C35.0987031,15.6753748 34.8229614,11.8927276 33.8692183,8.47172821 Z" id="Path" fill="#7360F2"></path>
                                <path d="M26.0641001,25.4235929 C25.5191043,26.3130524 24.7080982,26.9320907 23.7511113,27.3328357 C23.0504024,27.6260646 22.3367174,27.5641606 21.6457407,27.2709325 C15.8616481,24.8110712 11.3232609,20.9371973 8.32578395,15.3658557 C7.7061754,14.2190065 7.27796441,12.9678983 6.78487296,11.7558872 C6.68430805,11.5082721 6.69079651,11.215044 6.64537977,10.9413641 C6.68755186,8.9832488 8.18304695,7.87875547 9.69476111,7.54642944 C10.2721976,7.41610567 10.7847527,7.62136582 11.2129637,8.035144 C12.4002765,9.1689608 13.3377988,10.4884888 14.0449953,11.9676631 C14.3531777,12.6160241 14.2136845,13.1894487 13.6881533,13.6716467 C13.5778561,13.7726478 13.4643159,13.8638744 13.3442864,13.9551011 C12.1439985,14.8608509 11.9688208,15.548309 12.6078939,16.9134507 C13.6978855,19.2364717 15.5080498,20.797099 17.84699,21.7647528 C18.4633547,22.0188846 19.044035,21.8918187 19.514418,21.3900718 C19.5792985,21.3249099 19.6506666,21.259748 19.6960833,21.1815537 C20.6173858,19.6372175 21.9571669,19.7903481 23.1931394,20.6700331 C24.0041455,21.2499743 24.7924432,21.8624961 25.5937162,22.4522109 C26.8167134,23.3547028 26.8069811,24.2018073 26.0641001,25.4235929 Z" id="Path" fill="#FFFFFF"></path>
                                <path d="M18.3919858,10.0095487 C18.1194879,10.0095487 17.84699,10.0323556 17.5777367,10.0779685 C17.1235735,10.1529049 16.6986063,9.84664441 16.6207498,9.39051121 C16.5461371,8.9376359 16.8510756,8.50756746 17.3052388,8.43263108 C17.6620809,8.37072708 18.0286552,8.34140444 18.3919858,8.34140444 C21.9896076,8.34140444 24.9157156,11.2802059 24.9157156,14.8934322 C24.9157156,15.2615967 24.8865196,15.6297611 24.824883,15.984894 C24.7567587,16.3921556 24.4064043,16.6821258 24.0073893,16.6821258 C23.9619734,16.6821258 23.9165566,16.6788679 23.8678961,16.6690934 C23.4169776,16.594157 23.112039,16.1640886 23.1866517,15.7112141 C23.2320676,15.4440499 23.254776,15.17037 23.254776,14.8934322 C23.254776,12.2022459 21.0715489,10.0095487 18.3919858,10.0095487 Z" id="Path" fill="#FFFFFF"></path>
                                <path d="M22.4243062,15.0139815 C22.4243062,15.4733726 22.0512434,15.8480536 21.5938364,15.8480536 C21.1364294,15.8480536 20.7633666,15.4733726 20.7633666,15.0139815 C20.7633666,13.6358074 19.6441789,12.5117651 18.2719571,12.5117651 C17.8145501,12.5117651 17.4414873,12.1370841 17.4414873,11.677693 C17.4414873,11.2183019 17.8145501,10.8436208 18.2719571,10.8436208 C20.5622376,10.8436208 22.4243062,12.7137674 22.4243062,15.0139815 Z" id="Path" fill="#FFFFFF"></path>
                                <path d="M27.1670678,16.8678369 C27.079479,17.2555503 26.7356122,17.5161979 26.3560617,17.5161979 C26.2944251,17.5161979 26.2327893,17.5096821 26.1711526,17.4966497 C25.7234771,17.3923907 25.4444915,16.9460312 25.5450565,16.4964146 C25.6650851,15.965345 25.7267217,15.4147273 25.7267217,14.8608509 C25.7267217,10.8077816 22.4405261,7.50733231 18.4049619,7.50733231 C17.8534784,7.50733231 17.3052388,7.56923631 16.7764629,7.68978559 C16.3287873,7.79404461 15.8843564,7.5105902 15.7837915,7.06097361 C15.6799828,6.61135618 15.962213,6.16499748 16.4098885,6.06399634 C17.0586931,5.91412443 17.7302051,5.83918805 18.4049619,5.83918805 C23.3585847,5.83918805 27.3876613,9.88574154 27.3876613,14.8608509 C27.3876613,15.5385345 27.3130486,16.2129602 27.1670678,16.8678369 Z" id="Path" fill="#FFFFFF"></path>
                            </g>
                        </g>
                    </g>
                </g>
            </g>
        </g>
    </g>
</svg>