<?xml version="1.0" encoding="UTF-8"?>
<svg width="37px" height="35px" viewBox="0 0 37 35" version="1.1" xmlns="http://www.w3.org/2000/svg" xmlns:xlink="http://www.w3.org/1999/xlink">
    <title>VIBER</title>
    <g id="Page-1" stroke="none" stroke-width="1" fill="none" fill-rule="evenodd">
        <g id="Artboard" transform="translate(-335.000000, -545.000000)">
            <g id="Widget-9" transform="translate(95.000000, 91.000000)">
                <g id="chat">
                    <g id="header">
                        <g id="MESSENGERS-2" transform="translate(20.076733, 396.000000)">
                            <g id="ICONS-3-EXPORT" transform="translate(26.000000, 58.000000)">
                                <g id="VIBER" transform="translate(194.376006, 0.000000)">
                                    <rect id="Rectangle" fill="#7360F2" x="0" y="0" width="34.807502" height="34.807502" rx="4"></rect>
                                    <path d="M26.7141784,12.4733701 C26.3469961,11.1625294 25.6199751,10.1270753 24.5551464,9.39454649 C23.2112592,8.46741127 21.6654219,8.14061878 20.3307141,7.94050453 C18.4837868,7.66511756 16.8112717,7.62656354 15.2158642,7.8211704 C13.7214324,8.00476155 12.5960188,8.29667114 11.5697441,8.76850076 C9.557585,9.69380019 8.34955496,11.1900678 7.98053685,13.2150783 C7.80061776,14.1991269 7.67944736,15.0877081 7.60968295,15.9358995 C7.44812274,17.8966531 7.59499566,19.6315894 8.05764537,21.2398479 C8.50927938,22.8077161 9.29688533,23.9276224 10.4663613,24.6638228 C10.7637788,24.8510861 11.1456484,24.9869433 11.5146665,25.1172931 C11.7239606,25.1907296 11.9277469,25.2623302 12.0948145,25.3412741 C12.2490311,25.4128748 12.2490311,25.4257263 12.2471953,25.5542398 C12.2343438,26.6686383 12.2471953,28.8533733 12.2471953,28.8533733 L12.2508674,29.3196946 L13.0880431,29.3196946 L13.2239003,29.1875089 C13.3138598,29.1030572 15.3884401,27.0982418 16.1283126,26.2904407 L16.2292874,26.1784498 C16.3559656,26.0315768 16.3559656,26.0315768 16.486315,26.029741 C17.4850509,26.0095459 18.5058177,25.9709919 19.5192409,25.9159148 C20.7474661,25.8498219 22.1702972,25.7304873 23.5105129,25.1723702 C24.7369018,24.6601513 25.6328266,23.8468423 26.1707486,22.7563106 C26.7325378,21.6180454 27.0648377,20.3861491 27.1896797,18.9890201 C27.409989,16.5325706 27.2539367,14.4010774 26.7141784,12.4733701 Z M22.2969755,22.025618 C21.9885423,22.5268218 21.5295642,22.8756452 20.9879702,23.101462 C20.5914133,23.2666943 20.1875127,23.2318118 19.7964637,23.06658 C16.5230332,21.6804667 13.9545933,19.4975679 12.258211,16.3581589 C11.9075518,15.7119181 11.6652115,15.006928 11.3861529,14.3239689 C11.3292395,14.1844396 11.3329116,14.0192078 11.3072086,13.8649913 C11.3310753,12.7616081 12.1774309,12.1392344 13.0329655,11.9519712 C13.359758,11.8785347 13.6498318,11.9941973 13.8921721,12.2273581 C14.564116,12.8662554 15.0946943,13.6097994 15.4949228,14.4433031 C15.6693345,14.8086496 15.5903902,15.13177 15.2929727,15.4034849 C15.2305515,15.4603983 15.1662949,15.5118038 15.0983659,15.5632093 C14.4190788,16.0735925 14.3199394,16.46097 14.6816143,17.230217 C15.2984806,18.5392219 16.322919,19.4186236 17.6466111,19.9638892 C17.9954345,20.1070906 18.3240628,20.0354899 18.5902699,19.7527593 C18.6269881,19.7160411 18.6673779,19.6793228 18.6930809,19.635261 C19.2144798,18.7650391 19.9727112,18.8513271 20.6721934,19.347023 C21.1311715,19.6738154 21.5772981,20.0189668 22.0307679,20.3512667 C22.7229069,20.8598141 22.7173991,21.3371511 22.2969755,22.025618 Z M17.9550443,13.3399203 C17.8008277,13.3399203 17.6466111,13.3527718 17.4942308,13.3784743 C17.2372032,13.4207004 16.9966987,13.248125 16.9526368,12.9910974 C16.9104107,12.7359055 17.0829866,12.4935652 17.3400142,12.4513391 C17.5419643,12.4164567 17.7494222,12.3999336 17.9550443,12.3999336 C19.9910705,12.3999336 21.6470625,14.0559261 21.6470625,16.0919519 C21.6470625,16.2994098 21.6305394,16.5068676 21.595657,16.7069824 C21.557103,16.9364712 21.3588245,17.0998672 21.1330073,17.0998672 C21.1073048,17.0998672 21.0816018,17.0980314 21.054063,17.0925236 C20.7988716,17.0502975 20.6262957,16.8079571 20.6685218,16.5527658 C20.6942243,16.4022208 20.7070758,16.2480042 20.7070758,16.0919519 C20.7070758,14.5754887 19.4715074,13.3399203 17.9550443,13.3399203 Z M20.2370824,16.1598805 C20.2370824,16.4187439 20.0259525,16.6298738 19.7670891,16.6298738 C19.5082257,16.6298738 19.2970957,16.4187439 19.2970957,16.1598805 C19.2970957,15.3832898 18.6637064,14.7499004 17.8871156,14.7499004 C17.6282522,14.7499004 17.4171223,14.5387705 17.4171223,14.279907 C17.4171223,14.0210436 17.6282522,13.8099137 17.8871156,13.8099137 C19.1832694,13.8099137 20.2370824,14.8637272 20.2370824,16.1598805 Z M22.9211854,17.204514 C22.8716157,17.4229876 22.6770088,17.5698606 22.4622073,17.5698606 C22.4273248,17.5698606 22.3924429,17.566189 22.3575604,17.5588453 C22.1042044,17.5000962 21.9463162,17.2485759 22.0032296,16.9952204 C22.0711582,16.6959667 22.1060407,16.3856977 22.1060407,16.0735925 C22.1060407,13.7897185 20.2462619,11.9299402 17.9623879,11.9299402 C17.6502832,11.9299402 17.3400142,11.9648227 17.0407605,12.0327513 C16.7874045,12.0915005 16.5358847,11.931776 16.4789714,11.6784205 C16.4202222,11.4250644 16.5799466,11.1735447 16.8333026,11.1166313 C17.200485,11.0321796 17.5805183,10.9899535 17.9623879,10.9899535 C20.765825,10.9899535 23.0460274,13.2701559 23.0460274,16.0735925 C23.0460274,16.4554621 23.0038013,16.8354959 22.9211854,17.204514 Z" id="Shape" fill="#FFFFFF" fill-rule="nonzero"></path>
                                </g>
                            </g>
                        </g>
                    </g>
                </g>
            </g>
        </g>
    </g>
</svg>