<?xml version="1.0" encoding="UTF-8"?>
<svg width="36px" height="36px" viewBox="0 0 36 36" version="1.1" xmlns="http://www.w3.org/2000/svg" xmlns:xlink="http://www.w3.org/1999/xlink">
    <title>TG</title>
    <defs>
        <linearGradient x1="50%" y1="0%" x2="50%" y2="100%" id="linearGradient-1">
            <stop stop-color="#37AEE2" offset="0%"></stop>
            <stop stop-color="#1E96C8" offset="100%"></stop>
        </linearGradient>
    </defs>
    <g id="Page-1" stroke="none" stroke-width="1" fill="none" fill-rule="evenodd">
        <g id="Graphik-Copy-2" transform="translate(-233.000000, -568.000000)">
            <g id="Chat-Copy" transform="translate(107.000000, 46.000000)">
                <g id="Group-8">
                    <g id="Group-9" transform="translate(0.000000, 490.000000)">
                        <g id="ICONS-FINAL" transform="translate(72.000000, 29.000000)">
                            <g id="TG" transform="translate(54.000000, 3.000000)">
                                <rect id="Rectangle" fill="url(#linearGradient-1)" x="0" y="0" width="35.5340011" height="35.5340011" rx="17.1556047"></rect>
                                <path d="M8.32587708,17.1203076 C13.5386659,14.8183074 17.0146749,13.3006879 18.7539041,12.5674493 C23.7197568,10.4739039 24.7516185,10.1102326 25.4241715,10.0979796 C25.5720933,10.0955828 25.9028353,10.1327406 26.1170761,10.3089452 C26.2979768,10.4577289 26.3477498,10.6587146 26.3715678,10.7997778 C26.3953858,10.9408411 26.4250449,11.2621869 26.4014682,11.5132771 C26.1323668,14.379181 24.9679698,21.333974 24.3755907,24.5438355 C24.1249329,25.9020482 23.6313799,26.35745 23.1535634,26.4020171 C22.1151576,26.4988717 21.3266394,25.706438 20.3208926,25.0381969 C18.7470974,23.9925314 17.8580032,23.3416014 16.3303625,22.3212251 C14.5649093,21.1420037 15.7093791,20.4938831 16.7155058,19.4346727 C16.9788139,19.1574723 21.5540537,14.9393712 21.6426076,14.5567234 C21.6536827,14.5088669 21.663961,14.3304804 21.5594059,14.2362859 C21.4548509,14.1420913 21.3005366,14.1743022 21.1891791,14.1999198 C21.0313333,14.2362319 18.5171751,15.9205853 13.6467046,19.2529797 C12.9330691,19.7496778 12.2866803,19.9916858 11.7075381,19.9790037 C11.0690803,19.9650226 9.84094363,19.613103 8.92795024,19.3122908 C7.80812669,18.9433324 6.91811321,18.7482614 6.9956134,18.1216559 C7.03598028,17.795281 7.4794015,17.4614982 8.32587708,17.1203076 Z" id="Path" fill="#FFFFFF" fill-rule="nonzero"></path>
                            </g>
                        </g>
                    </g>
                </g>
            </g>
        </g>
    </g>
</svg>