<?xml version="1.0" encoding="UTF-8"?>
<svg width="35px" height="35px" viewBox="0 0 35 35" version="1.1" xmlns="http://www.w3.org/2000/svg" xmlns:xlink="http://www.w3.org/1999/xlink">
    <title>FB</title>
    <defs>
        <linearGradient x1="50%" y1="0%" x2="50%" y2="100.001%" id="linearGradient-1">
            <stop stop-color="#00B2FF" offset="0%"></stop>
            <stop stop-color="#006AFF" offset="100%"></stop>
        </linearGradient>
    </defs>
    <g id="Page-1" stroke="none" stroke-width="1" fill="none" fill-rule="evenodd">
        <g id="Graphik-Copy-2" transform="translate(-283.000000, -568.000000)" fill-rule="nonzero">
            <g id="Chat-Copy" transform="translate(107.000000, 46.000000)">
                <g id="Group-8">
                    <g id="Group-9" transform="translate(0.000000, 490.000000)">
                        <g id="ICONS-FINAL" transform="translate(72.000000, 29.000000)">
                            <g id="FB" transform="translate(104.000000, 3.000000)">
                                <path d="M17.4400005,0.00357520011 C7.61465303,0.00357520011 0,7.19338982 0,16.9038077 C0,21.9832079 2.08434166,26.3721584 5.47764257,29.4044513 C5.76191458,29.6603833 5.93378578,30.0144153 5.94782498,30.3965257 L6.04261139,33.4953522 C6.07417779,34.4839387 7.09528982,35.1254691 8.00068745,34.7293195 L11.4606092,33.204453 C11.7533146,33.0749375 12.0816944,33.0501797 12.39051,33.1343442 C13.9800788,33.5725242 15.6749853,33.8038658 17.4400005,33.8038658 C27.265348,33.8038658 34.8800011,26.6140512 34.8800011,16.9037205 C34.8800011,7.19338982 27.265348,0.00357520011 17.4400005,0.00357520011 Z" id="Path" fill="url(#linearGradient-1)"></path>
                                <path d="M6.96902421,21.8464783 L12.0921988,13.727722 C12.906298,12.4376852 14.653786,12.1151324 15.8749349,13.030122 L19.948919,16.0834301 C20.3227959,16.3628492 20.8363735,16.3614272 21.2086974,16.0799421 L26.7109304,11.908294 C27.4442824,11.3509987 28.4058369,12.230934 27.9109769,13.0091068 L22.7912903,21.124375 C21.9771911,22.4144119 20.229703,22.7369647 19.0085542,21.8219751 L14.9345701,18.768667 C14.5606931,18.4892479 14.0471155,18.4906699 13.6747916,18.772155 L8.16907065,22.9472911 C7.43571863,23.5046735 6.4741642,22.6247383 6.96902421,21.8464783 Z" id="Path" fill="#FFFFFF"></path>
                            </g>
                        </g>
                    </g>
                </g>
            </g>
        </g>
    </g>
</svg>