<?xml version="1.0" encoding="UTF-8"?>
<svg width="44px" height="45px" viewBox="0 0 44 45" version="1.1" xmlns="http://www.w3.org/2000/svg" xmlns:xlink="http://www.w3.org/1999/xlink">
    <title>WA2</title>
    <defs>
        <linearGradient x1="50%" y1="0%" x2="50%" y2="100%" id="linearGradient-1">
            <stop stop-color="#FFFFFF" offset="0%"></stop>
            <stop stop-color="#FBFBFB" offset="100%"></stop>
        </linearGradient>
        <path d="M34.226001,5.88600018 C30.5200009,2.07100006 25.3970008,0 20.1650006,0 C9.04700028,0 0.109000003,9.04700028 0.218000007,20.0560006 C0.218000007,23.5440007 1.19900004,26.9230008 2.83400009,29.9750009 L-9.23705556e-14,40.3300012 L10.5730003,37.6050012 C13.5160004,39.2400012 16.7860005,40.0030012 20.0560006,40.0030012 L20.0560006,40.0030012 C31.065001,40.0030012 40.0030012,30.9560009 40.0030012,19.9470006 C40.0030012,14.6060004 37.9320012,9.59200029 34.226001,5.88600018 Z" id="path-2"></path>
        <filter x="-8.2%" y="-6.7%" width="116.5%" height="116.4%" filterUnits="objectBoundingBox" id="filter-3">
            <feOffset dx="0" dy="0.6" in="SourceAlpha" result="shadowOffsetOuter1"></feOffset>
            <feGaussianBlur stdDeviation="1" in="shadowOffsetOuter1" result="shadowBlurOuter1"></feGaussianBlur>
            <feColorMatrix values="0 0 0 0 0   0 0 0 0 0   0 0 0 0 0  0 0 0 0.17 0" type="matrix" in="shadowBlurOuter1"></feColorMatrix>
        </filter>
        <linearGradient x1="50%" y1="0%" x2="50%" y2="100%" id="linearGradient-4">
            <stop stop-color="#3AEF1E" offset="0%"></stop>
            <stop stop-color="#1FC01F" offset="100%"></stop>
        </linearGradient>
        <path d="M11.4233699,33.5 L12.0252314,33.8 C14.5329875,35.3 17.3416743,36 20.1503611,36 L20.1503611,36 C28.9776625,36 36.2,28.8 36.2,20 C36.2,15.8 34.4947259,11.7 31.4854186,8.7 C28.4761113,5.7 24.4637015,4 20.1503611,4 C11.3230597,4 4.10072219,11.2 4.20103243,20.1 C4.20103243,23.1 5.10382462,26 6.60847827,28.5 L7.00971924,29.1 L5.40475535,35 L11.4233699,33.5 Z" id="path-5"></path>
        <filter x="-4.7%" y="-4.7%" width="109.4%" height="109.4%" filterUnits="objectBoundingBox" id="filter-6">
            <feGaussianBlur stdDeviation="1" in="SourceAlpha" result="shadowBlurInner1"></feGaussianBlur>
            <feOffset dx="0" dy="1" in="shadowBlurInner1" result="shadowOffsetInner1"></feOffset>
            <feComposite in="shadowOffsetInner1" in2="SourceAlpha" operator="arithmetic" k2="-1" k3="1" result="shadowInnerInner1"></feComposite>
            <feColorMatrix values="0 0 0 0 0   0 0 0 0 0   0 0 0 0 0  0 0 0 0.1 0" type="matrix" in="shadowInnerInner1"></feColorMatrix>
        </filter>
    </defs>
    <g id="Page-1" stroke="none" stroke-width="1" fill="none" fill-rule="evenodd">
        <g id="Graphik-Copy-2" transform="translate(-177.000000, -563.000000)">
            <g id="Chat-Copy" transform="translate(107.000000, 46.000000)">
                <g id="Group-8">
                    <g id="Group-9" transform="translate(0.000000, 490.000000)">
                        <g id="ICONS-FINAL" transform="translate(72.000000, 29.000000)">
                            <g id="WA2">
                                <g id="Path">
                                    <use fill="black" fill-opacity="1" filter="url(#filter-3)" xlink:href="#path-2"></use>
                                    <use fill="url(#linearGradient-1)" fill-rule="evenodd" xlink:href="#path-2"></use>
                                </g>
                                <g id="Path" fill-rule="nonzero">
                                    <use fill="url(#linearGradient-4)" xlink:href="#path-5"></use>
                                    <use fill="black" fill-opacity="1" filter="url(#filter-6)" xlink:href="#path-5"></use>
                                </g>
                                <path d="M29.7570009,24.5250008 L28.5580009,23.9800007 C28.5580009,23.9800007 26.8140008,23.2170007 25.7240008,22.6720007 C25.6150008,22.6720007 25.5060008,22.5630007 25.3970008,22.5630007 C25.0700008,22.5630007 24.8520008,22.6720007 24.6340008,22.7810007 L24.6340008,22.7810007 C24.6340008,22.7810007 24.5250008,22.8900007 22.9990007,24.6340008 C22.8900007,24.8520008 22.6720007,24.9610008 22.4540007,24.9610008 L22.3450007,24.9610008 C22.2360007,24.9610008 22.0180007,24.8520008 21.9090007,24.7430008 L21.3640007,24.5250008 L21.3640007,24.5250008 C20.1650006,23.9800007 19.0750006,23.3260007 18.2030006,22.4540007 C17.9850006,22.2360007 17.6580005,22.0180007 17.4400005,21.8000007 C16.6770005,21.0370006 15.9140005,20.1650006 15.3690005,19.1840006 L15.2600005,18.9660006 C15.1510005,18.8570006 15.1510005,18.7480006 15.0420005,18.5300006 C15.0420005,18.3120006 15.0420005,18.0940006 15.1510005,17.9850006 C15.1510005,17.9850006 15.5870005,17.4400005 15.9140005,17.1130005 C16.1320005,16.8950005 16.2410005,16.5680005 16.4590005,16.3500005 C16.6770005,16.0230005 16.7860005,15.5870005 16.6770005,15.2600005 C16.5680005,14.7150005 15.2600005,11.7720004 14.9330005,11.1180003 C14.7150005,10.7910003 14.4970004,10.6820003 14.1700004,10.5730003 L13.8430004,10.5730003 C13.6250004,10.5730003 13.2980004,10.5730003 12.9710004,10.5730003 C12.7530004,10.5730003 12.5350004,10.6820003 12.3170004,10.6820003 L12.2080004,10.7910003 C11.9900004,10.9000003 11.7720004,11.1180003 11.5540004,11.2270003 C11.3360003,11.4450004 11.2270003,11.6630004 11.0090003,11.8810004 C10.2460003,12.8620004 9.8100003,14.0610004 9.8100003,15.2600005 L9.8100003,15.2600005 C9.8100003,16.1320005 10.0280003,17.0040005 10.3550003,17.7670005 L10.4640003,18.0940006 C11.4450004,20.1650006 12.7530004,22.0180007 14.4970004,23.6530007 L14.9330005,24.0890007 C15.2600005,24.4160007 15.5870005,24.6340008 15.8050005,24.9610008 C18.0940006,26.9230008 20.7100006,28.3400009 23.6530007,29.1030009 C23.9800007,29.2120009 24.4160007,29.2120009 24.7430008,29.3210009 L24.7430008,29.3210009 C25.0700008,29.3210009 25.5060008,29.3210009 25.8330008,29.3210009 C26.3780008,29.3210009 27.0320008,29.1030009 27.4680008,28.8850009 C27.7950009,28.6670009 28.0130009,28.6670009 28.2310009,28.4490009 L28.4490009,28.2310009 C28.6670009,28.0130009 28.8850009,27.9040009 29.1030009,27.6860008 C29.3210009,27.4680008 29.5390009,27.2500008 29.6480009,27.0320008 C29.8660009,26.5960008 29.9750009,26.0510008 30.0840009,25.5060008 C30.0840009,25.2880008 30.0840009,24.9610008 30.0840009,24.7430008 C30.0840009,24.7430008 29.9750009,24.6340008 29.7570009,24.5250008 Z" id="Path" fill="#FFFFFF"></path>
                            </g>
                        </g>
                    </g>
                </g>
            </g>
        </g>
    </g>
</svg>