<?xml version="1.0" encoding="UTF-8"?>
<svg width="36px" height="35px" viewBox="0 0 36 35" version="1.1" xmlns="http://www.w3.org/2000/svg" xmlns:xlink="http://www.w3.org/1999/xlink">
    <title>WA--</title>
    <g id="Page-1" stroke="none" stroke-width="1" fill="none" fill-rule="evenodd">
        <g id="Artboard" transform="translate(-141.000000, -545.000000)">
            <g id="Widget-9" transform="translate(95.000000, 91.000000)">
                <g id="chat">
                    <g id="header">
                        <g id="MESSENGERS-2" transform="translate(20.076733, 396.000000)">
                            <g id="ICONS-3-EXPORT" transform="translate(26.000000, 58.000000)">
                                <g id="WA--">
                                    <rect id="Rectangle" fill="#71C468" x="0" y="0" width="34.807502" height="34.807502" rx="4"></rect>
                                    <path d="M8.28727972,22.6243928 L8.25711322,22.5718915 C7.31063923,20.9333284 6.81086152,19.061555 6.8117317,17.159325 C6.81434227,11.1898384 11.6731795,6.33303161 17.6426661,6.33303161 C20.5383602,6.3339018 23.2594366,7.46166486 25.3040873,9.50805592 C27.3484479,11.5541569 28.4744706,14.2746532 28.4744706,17.1683169 C28.47157,23.1386737 23.6130228,27.9957705 17.6435363,27.9957705 C15.8315157,27.9949003 14.0415399,27.5392121 12.4627296,26.6780165 L12.4122588,26.6501705 L6.78098508,28.1271688 L8.28727972,22.6243928 Z" id="Path" fill="#FFFFFF" fill-rule="nonzero"></path>
                                    <path d="M17.5942256,25.9122515 C16.1413025,25.9113813 14.7037527,25.5459025 13.4370496,24.8546835 L12.6054404,24.4010258 L11.6891329,24.6411975 L9.80894769,25.1340137 L10.2901614,23.3759448 L10.5532481,22.4152578 L10.0549207,21.5526119 C9.29553703,20.2377585 8.89438057,18.7346545 8.89524935,17.2063151 C8.8972812,12.4107115 12.8006525,8.50908061 17.5962561,8.50850048 C19.9231376,8.50937067 22.1090487,9.41523591 23.7516727,11.0590202 C25.3942968,12.7030945 26.2990017,14.8892957 26.2990017,17.2135667 C26.2966812,22.0100404 22.39331,25.9122515 17.5942256,25.9122515 Z" id="Path" fill="#71C468" fill-rule="nonzero"></path>
                                    <path d="M22.4008516,19.3498771 C22.1397953,19.219639 20.8574289,18.5881729 20.6189976,18.5017343 C20.379696,18.4144255 20.2059485,18.3714962 20.0322011,18.6319724 C19.8584536,18.8930286 19.3586759,19.4801152 19.2069732,19.6538626 C19.0549805,19.8276101 18.9029877,19.8493648 18.6419314,19.7194167 C18.3808752,19.5891787 17.5405641,19.3133292 16.5447794,18.4251578 C15.7691523,17.7342289 15.2458795,16.8799948 15.0941768,16.6189385 C14.942184,16.3578822 15.0776432,16.2172019 15.2084614,16.0869639 C15.3253566,15.9700687 15.4695177,15.7821081 15.5997558,15.6301154 C15.7299938,15.4781226 15.7735032,15.3690591 15.860812,15.1950216 C15.9481208,15.0212742 15.9046115,14.8684112 15.8390573,14.7381732 C15.7735032,14.6079351 15.2522609,13.3241184 15.034714,12.802586 C14.8232584,12.2943964 14.607742,12.3631413 14.4479175,12.3553096 C14.2959248,12.3474779 14.1221773,12.3466077 13.9484299,12.3466077 C13.7746824,12.3466077 13.4915814,12.4121618 13.25315,12.6732181 C13.0147186,12.9342744 12.3403233,13.5648703 12.3403233,14.8481068 C12.3403233,16.1313434 13.2749047,17.3713607 13.4051428,17.5451081 C13.5353808,17.7188556 15.243559,20.3523332 17.860503,21.4815465 C18.4823971,21.7495643 18.9688319,21.9102589 19.3470734,22.0309249 C19.971578,22.2293277 20.5401005,22.2011916 20.9899875,22.1338971 C21.4912155,22.0587709 22.5334102,21.5033012 22.7497968,20.89446 C22.9673437,20.2856188 22.9673437,19.7635062 22.9017896,19.6550229 C22.8356553,19.5456693 22.6619079,19.4801152 22.4008516,19.3498771 Z" id="Path" fill="#FFFFFF" fill-rule="nonzero"></path>
                                </g>
                            </g>
                        </g>
                    </g>
                </g>
            </g>
        </g>
    </g>
</svg>