<?xml version="1.0" encoding="UTF-8"?>
<svg width="37px" height="35px" viewBox="0 0 37 35" version="1.1" xmlns="http://www.w3.org/2000/svg" xmlns:xlink="http://www.w3.org/1999/xlink">
    <title>SKYPE--</title>
    <g id="Page-1" stroke="none" stroke-width="1" fill="none" fill-rule="evenodd">
        <g id="Artboard" transform="translate(-383.000000, -545.000000)">
            <g id="Widget-9" transform="translate(95.000000, 91.000000)">
                <g id="chat">
                    <g id="header">
                        <g id="MESSENGERS-2" transform="translate(20.076733, 396.000000)">
                            <g id="ICONS-3-EXPORT" transform="translate(26.000000, 58.000000)">
                                <g id="SKYPE--" transform="translate(242.970007, 0.000000)">
                                    <rect id="Rectangle" fill="#46A9E4" x="0" y="0" width="34.807502" height="34.807502" rx="4"></rect>
                                    <path d="M26.5625196,19.7800475 C26.7059571,19.1435438 26.7776759,18.483133 26.7776759,17.8047937 C26.7776759,12.7306915 22.5881049,8.61582816 17.4183785,8.61582816 C16.8745109,8.61582816 16.3396091,8.66364067 15.8166596,8.75030064 C14.9799408,8.23332814 13.9908195,7.9345 12.9299794,7.9345 C9.93273369,7.9345 7.50326032,10.3191482 7.50326032,13.262606 C7.50326032,14.2457504 7.77220603,15.166141 8.25033106,15.9580354 C8.12482286,16.5556917 8.05908105,17.1742662 8.05908105,17.8047937 C8.05908105,22.8818833 12.2486512,26.9967474 17.4183785,26.9967474 C18.0040816,26.9967474 18.5778316,26.9429579 19.1336516,26.8413567 C19.8956636,27.2447742 20.7712298,27.4748724 21.7005855,27.4748724 C24.697832,27.4748724 27.1273046,25.0902234 27.1273046,22.1467664 C27.1243165,21.2951064 26.9241015,20.4912581 26.5625196,19.7800475 Z M22.217558,22.197567 C21.7872455,22.7982114 21.1477537,23.2763364 20.3170111,23.6140128 C19.4982223,23.9487003 18.5120891,24.1190322 17.3944722,24.1190322 C16.0497452,24.1190322 14.9201752,23.8889347 14.0416201,23.428739 C13.4140814,23.0970395 12.89412,22.6428208 12.5026557,22.0870008 C12.1022256,21.5252039 11.9020106,20.9663951 11.9020106,20.4255163 C11.9020106,20.0908288 12.033495,19.7979769 12.2904875,19.5589143 C12.5474794,19.3198518 12.8761907,19.2033094 13.2676558,19.2033094 C13.5903902,19.2033094 13.865312,19.2959456 14.0924214,19.4812194 C14.3075777,19.6605163 14.4928508,19.9264731 14.6422652,20.2701257 C14.8066201,20.6436607 14.9889059,20.95743 15.1801559,21.2054576 C15.3624408,21.4445201 15.6283977,21.6447352 15.9630852,21.8001258 C16.3037497,21.9585045 16.7609565,22.0391883 17.3227535,22.0391883 C18.0967185,22.0391883 18.7302342,21.8778207 19.2083592,21.5580752 C19.6745311,21.2472939 19.9016405,20.8707701 19.9016405,20.4105751 C19.9016405,20.0460044 19.7821093,19.7621175 19.5400579,19.5379969 C19.2860542,19.3049106 18.9483785,19.1226256 18.5419723,18.9971174 C18.1146478,18.8686219 17.5349216,18.7281725 16.8237103,18.578758 C15.852519,18.3755549 15.0277533,18.1335043 14.3703314,17.8585824 C13.6979683,17.5806724 13.1570888,17.1892074 12.7626356,16.7051062 C12.3592182,16.2120392 12.1590032,15.5904766 12.1590032,14.8613359 C12.1590032,14.1680547 12.3711713,13.5405159 12.7955069,13.0026253 C13.2108782,12.4677227 13.8234757,12.0493633 14.612382,11.7624883 C15.3863471,11.4815902 16.312714,11.3381527 17.3556247,11.3381527 C18.1923435,11.3381527 18.9274604,11.4337777 19.5400579,11.6220389 C20.1586323,11.8103008 20.6785937,12.0643045 21.087988,12.3780747 C21.5003705,12.6948321 21.8051756,13.0325077 21.9964256,13.3821372 C22.1906637,13.7377421 22.2892768,14.0903597 22.2892768,14.4310234 C22.2892768,14.7597348 22.1607813,15.0555748 21.9067768,15.3185436 C21.6497849,15.5785235 21.3240625,15.7100079 20.9445505,15.7100079 C20.5979099,15.7100079 20.3259761,15.6293248 20.1377142,15.4649692 C19.9614061,15.3125666 19.7791204,15.0764922 19.5789061,14.7358285 C19.3458198,14.299539 19.0619329,13.9558873 18.7391985,13.7138359 C18.4254291,13.4807503 17.8965035,13.3612191 17.1763279,13.3612191 C16.503964,13.3612191 15.9600971,13.4927034 15.5536909,13.7526841 C15.1622258,14.0036998 14.9739639,14.2935629 14.9739639,14.6342266 C14.9739639,14.8434066 15.0337295,15.0197154 15.1592377,15.1691291 C15.2937102,15.3275079 15.4819721,15.4679573 15.7180465,15.5845004 C15.9660733,15.7070198 16.2170889,15.8026448 16.4710934,15.8713755 C16.7310733,15.9430942 17.1673628,16.0476842 17.7680072,16.1851448 C18.5240422,16.3435235 19.2203123,16.5198323 19.8358979,16.7140704 C20.4574605,16.9112974 20.9983392,17.1503599 21.4376168,17.431258 C21.8858594,17.718133 22.2414643,18.0856918 22.4924799,18.5249694 C22.7464844,18.967235 22.8720217,19.5111018 22.8720217,20.1446175 C22.8749799,20.9036414 22.6538475,21.5939346 22.217558,22.197567 Z" id="Shape" fill="#FFFFFF" fill-rule="nonzero"></path>
                                </g>
                            </g>
                        </g>
                    </g>
                </g>
            </g>
        </g>
    </g>
</svg>