<?xml version="1.0" encoding="UTF-8"?>
<svg width="35px" height="35px" viewBox="0 0 35 35" version="1.1" xmlns="http://www.w3.org/2000/svg" xmlns:xlink="http://www.w3.org/1999/xlink">
    <title>VK</title>
    <g id="Page-1" stroke="none" stroke-width="1" fill="none" fill-rule="evenodd">
        <g id="Graphik-Copy-2" transform="translate(-332.000000, -568.000000)">
            <g id="Chat-Copy" transform="translate(107.000000, 46.000000)">
                <g id="Group-8">
                    <g id="Group-9" transform="translate(0.000000, 490.000000)">
                        <g id="ICONS-FINAL" transform="translate(72.000000, 29.000000)">
                            <g id="VK" transform="translate(153.000000, 3.000000)">
                                <path d="M22.3713137,0 L11.8506114,0 C2.23681091,0 0,2.28594811 0,11.8559524 L0,22.3253811 C0,31.8964536 2.29663012,34.1824017 11.9104306,34.1824017 L22.4322011,34.1824017 C32.0460016,34.1824017 34.2828125,31.8355662 34.2828125,22.2666301 L34.2828125,11.795065 C34.2828125,2.22719711 31.9861824,0 22.3723819,0 L22.3713137,0 Z" id="Path" fill="#4680C2"></path>
                                <path d="M27.6920182,24.3731206 L25.2137941,24.3731206 C24.2460048,24.3731206 24.0045916,23.59013 22.3114945,21.9055785 C20.7999914,20.461372 20.1953902,20.2808462 19.8322022,20.2808462 C19.3483076,20.2808462 19.1667136,20.4015528 19.1667136,21.1236561 L19.1667136,23.349785 C19.1667136,23.9511816 18.9851196,24.3133014 17.3529099,24.3133014 C14.6930917,24.3133014 11.7907922,22.6875009 9.73450709,19.7392688 C6.65061353,15.4066494 5.80459909,12.1561166 5.80459909,11.4949008 C5.80459909,11.1338492 5.9253057,10.7727975 6.65061353,10.7727975 L9.12990586,10.7727975 C9.79539449,10.7727975 10.0378759,11.0729618 10.2792891,11.7341776 C11.4884916,15.2859428 13.5437085,18.3548815 14.3907911,18.3548815 C14.6930917,18.3548815 14.8746857,18.2341749 14.8746857,17.3924333 L14.8746857,13.8417363 C14.7529109,12.1561166 13.9068965,12.0364782 13.9068965,11.4340134 C13.9068965,11.132781 14.1483097,10.8326167 14.5723851,10.8326167 L18.5022931,10.8326167 C19.0470752,10.8326167 19.227601,11.132781 19.227601,11.7352458 L19.227601,16.67033 C19.227601,17.2119075 19.4690142,17.3924333 19.590789,17.3924333 C19.8930896,17.3924333 20.1953902,17.2108393 20.739104,16.6094426 C22.5529077,14.6236587 23.8229976,11.4949008 23.8229976,11.4949008 C23.8828168,11.1936684 24.1861856,10.8326167 24.7897186,10.8326167 L27.269011,10.8326167 C28.0552062,10.8326167 28.176981,11.1936684 28.0552062,11.7352458 C27.7529056,13.1794523 24.669012,17.4522525 24.669012,17.4522525 C24.4275988,17.8731233 24.305824,18.1145365 24.669012,18.5354073 C24.9114934,18.8964589 25.8183953,19.6185622 26.3621091,20.3406654 C27.4516732,21.5445269 28.2368002,22.5678625 28.4782134,23.2290784 C28.7206948,24.012069 28.4183942,24.3720524 27.6920182,24.3720524 L27.6920182,24.3731206 Z" id="Path" fill="#FFFFFF"></path>
                            </g>
                        </g>
                    </g>
                </g>
            </g>
        </g>
    </g>
</svg>