<?xml version="1.0" encoding="UTF-8"?>
<svg width="37px" height="35px" viewBox="0 0 37 35" version="1.1" xmlns="http://www.w3.org/2000/svg" xmlns:xlink="http://www.w3.org/1999/xlink">
    <title>TG2</title>
    <defs>
        <linearGradient x1="50%" y1="0%" x2="50%" y2="100%" id="linearGradient-1">
            <stop stop-color="#37AEE2" offset="0%"></stop>
            <stop stop-color="#1E96C8" offset="100%"></stop>
        </linearGradient>
        <rect id="path-2" x="0" y="0" width="34.807502" height="34.807502" rx="4"></rect>
    </defs>
    <g id="Page-1" stroke="none" stroke-width="1" fill="none" fill-rule="evenodd">
        <g id="Artboard" transform="translate(-189.000000, -545.000000)">
            <g id="Widget-9" transform="translate(95.000000, 91.000000)">
                <g id="chat">
                    <g id="header">
                        <g id="MESSENGERS-2" transform="translate(20.076733, 396.000000)">
                            <g id="ICONS-3-EXPORT" transform="translate(26.000000, 58.000000)">
                                <g id="TG2" transform="translate(48.594001, 0.000000)">
                                    <g id="Rectangle">
                                        <use fill="url(#linearGradient-1)" xlink:href="#path-2"></use>
                                        <use fill="#52A4D3" xlink:href="#path-2"></use>
                                    </g>
                                    <path d="M8.29085277,17.0482879 C13.4817131,14.7559715 16.9430996,13.2447362 18.6750124,12.514582 C23.6199754,10.4298435 24.6474963,10.0677021 25.3172201,10.0555006 C25.4645196,10.0531139 25.7938703,10.0901154 26.0072099,10.2655787 C26.1873496,10.4137366 26.2369132,10.6138767 26.260631,10.7543466 C26.2843488,10.8948165 26.3138831,11.2148104 26.2904056,11.4648444 C26.0224363,14.3186924 24.8629376,21.2442288 24.2730504,24.4405874 C24.023447,25.7930865 23.5319702,26.2465726 23.0561637,26.2909522 C22.0221262,26.3873994 21.236925,25.5982992 20.235409,24.9328691 C18.6682343,23.8916024 17.7828803,23.2434107 16.2616659,22.2273268 C14.5036394,21.053066 15.6432948,20.4076719 16.645189,19.3529172 C16.9073894,19.0768829 21.4633826,14.8765261 21.551564,14.4954879 C21.5625926,14.4478327 21.5728276,14.2701967 21.4687124,14.1763984 C21.3645971,14.0826 21.2109321,14.1146754 21.100043,14.1401852 C20.9428612,14.1763446 18.4392793,15.8536124 13.5892972,19.1719885 C12.8786638,19.6665972 12.2349942,19.9075871 11.6582883,19.8949584 C11.0225162,19.8810362 9.79954591,19.5305969 8.8903932,19.2310501 C7.77528039,18.8636438 6.88901092,18.6693935 6.96618508,18.0454239 C7.00638215,17.7204219 7.44793804,17.3880433 8.29085277,17.0482879 Z" id="Path" fill="#FFFFFF" fill-rule="nonzero"></path>
                                </g>
                            </g>
                        </g>
                    </g>
                </g>
            </g>
        </g>
    </g>
</svg>