<?xml version="1.0" encoding="UTF-8"?>
<svg width="37px" height="35px" viewBox="0 0 37 35" version="1.1" xmlns="http://www.w3.org/2000/svg" xmlns:xlink="http://www.w3.org/1999/xlink">
    <title>VK</title>
    <g id="Page-1" stroke="none" stroke-width="1" fill="none" fill-rule="evenodd">
        <g id="Artboard" transform="translate(-286.000000, -545.000000)">
            <g id="Widget-9" transform="translate(95.000000, 91.000000)">
                <g id="chat">
                    <g id="header">
                        <g id="MESSENGERS-2" transform="translate(20.076733, 396.000000)">
                            <g id="ICONS-3-EXPORT" transform="translate(26.000000, 58.000000)">
                                <g id="VK" transform="translate(145.782004, 0.000000)">
                                    <rect id="Rectangle" fill="#5A81B4" x="0" y="0" width="34.807502" height="34.807502" rx="4"></rect>
                                    <path d="M27.0899121,13.0406584 C27.2331176,12.5631082 27.0899122,12.2122004 26.4083473,12.2122004 L24.1545745,12.2122004 C23.5815144,12.2122004 23.3173254,12.5153334 23.1740405,12.8495986 C23.1740405,12.8495986 22.0279201,15.6432373 20.4042892,17.4578882 C19.879004,17.9831735 19.640209,18.1503061 19.3536789,18.1503061 C19.2104337,18.1503061 18.9955262,17.9831735 18.9955262,17.5056631 L18.9955262,13.0406584 C18.9955262,12.4675982 18.8367489,12.2122004 18.3591589,12.2122004 L14.8175161,12.2122004 C14.4594032,12.2122004 14.2440312,12.4781707 14.2440312,12.7302409 C14.2440312,13.2734914 15.0558069,13.3987714 15.1394836,14.9269319 L15.1394836,18.2458559 C15.1394836,18.9735186 15.0080717,19.1054462 14.7215416,19.1054462 C13.9575011,19.1054462 12.0989704,16.2993272 10.99669,13.0883936 C10.7806696,12.4642993 10.5640045,12.2122004 9.98800308,12.2122004 L7.73423034,12.2122004 C7.09029527,12.2122004 6.9615004,12.5153334 6.9615004,12.8495986 C6.9615004,13.4465462 7.72558067,16.4073175 10.5191796,20.3231495 C12.3815656,22.9973509 15.0055452,24.4469666 17.3932563,24.4469666 C18.8258671,24.4469666 19.003094,24.1249991 19.003094,23.5704111 L19.003094,21.5492588 C19.003094,20.9053238 19.1388111,20.7768122 19.5924739,20.7768122 C19.9267391,20.7768122 20.4997993,20.9439448 21.8369397,22.2333104 C23.3650606,23.7614312 23.6169915,24.4469666 24.4765421,24.4469666 L26.7303148,24.4469666 C27.3742499,24.4469666 27.6962174,24.1249991 27.5104794,23.4896142 C27.3072262,22.8563522 26.5776311,21.9375733 25.6095265,20.8484347 C25.0842015,20.2276394 24.2962735,19.5591089 24.0574785,19.2247642 C23.7232133,18.7950287 23.8187233,18.6039688 24.0574785,18.2219685 C24.0574785,18.2219685 26.8033821,14.3538717 27.0899121,13.0406584 L27.0899121,13.0406584 Z" id="Path" fill="#FFFFFF"></path>
                                </g>
                            </g>
                        </g>
                    </g>
                </g>
            </g>
        </g>
    </g>
</svg>