<?xml version="1.0" encoding="UTF-8"?>
<svg width="18px" height="11px" viewBox="0 0 18 11" version="1.1" xmlns="http://www.w3.org/2000/svg" xmlns:xlink="http://www.w3.org/1999/xlink">
    <!-- Generator: Sketch 55.2 (78181) - https://sketchapp.com -->
    <title>Group</title>
    <desc>Created with Sketch.</desc>
    <g id="Page-1" stroke="none" stroke-width="1" fill="none" fill-rule="evenodd">
        <g id="Client-General" transform="translate(-610.000000, -662.000000)" fill="#000000" fill-rule="nonzero">
            <g id="open" transform="translate(580.000000, 146.000000)">
                <g id="chat">
                    <g id="Group-3" transform="translate(30.000000, 510.000000)">
                        <g id="Group" transform="translate(0.000000, 6.000000)">
                            <path d="M14.8378378,0 L3.16216216,0 C1.41081081,0 0,1.32916667 0,2.97916667 L0,8.02083333 C0,9.67083333 1.41081081,11 3.16216216,11 L14.8378378,11 C16.5891892,11 18,9.67083333 18,8.02083333 L18,2.97916667 C18,1.32916667 16.5891892,0 14.8378378,0 Z M16.5405405,8.02083333 C16.5405405,8.91458333 15.7864865,9.625 14.8378378,9.625 L3.16216216,9.625 C2.21351351,9.625 1.45945946,8.91458333 1.45945946,8.02083333 L1.45945946,2.97916667 C1.45945946,2.08541667 2.21351351,1.375 3.16216216,1.375 L14.8378378,1.375 C15.7864865,1.375 16.5405405,2.08541667 16.5405405,2.97916667 L16.5405405,8.02083333 Z" id="Shape"></path>
                            <path d="M12.2837838,7.21875 L5.71621622,7.21875 C5.3027027,7.21875 4.98648649,7.51666667 4.98648649,7.90625 C4.98648649,8.29583333 5.3027027,8.59375 5.71621622,8.59375 L12.3081081,8.59375 C12.7216216,8.59375 13.0378378,8.29583333 13.0378378,7.90625 C13.0378378,7.51666667 12.6972973,7.21875 12.2837838,7.21875 Z" id="Path"></path>
                            <path d="M3.40540541,3.78125 L4.37837838,3.78125 C4.79189189,3.78125 5.10810811,3.48333333 5.10810811,3.09375 C5.10810811,2.70416667 4.79189189,2.40625 4.37837838,2.40625 L3.40540541,2.40625 C2.99189189,2.40625 2.67567568,2.70416667 2.67567568,3.09375 C2.67567568,3.48333333 2.99189189,3.78125 3.40540541,3.78125 Z" id="Path"></path>
                            <path d="M6.81081081,3.78125 L7.78378378,3.78125 C8.1972973,3.78125 8.51351351,3.48333333 8.51351351,3.09375 C8.51351351,2.70416667 8.1972973,2.40625 7.78378378,2.40625 L6.81081081,2.40625 C6.3972973,2.40625 6.08108108,2.70416667 6.08108108,3.09375 C6.08108108,3.48333333 6.3972973,3.78125 6.81081081,3.78125 Z" id="Path"></path>
                            <path d="M10.2162162,3.78125 L11.1891892,3.78125 C11.6027027,3.78125 11.9189189,3.48333333 11.9189189,3.09375 C11.9189189,2.70416667 11.6027027,2.40625 11.1891892,2.40625 L10.2162162,2.40625 C9.8027027,2.40625 9.48648649,2.70416667 9.48648649,3.09375 C9.48648649,3.48333333 9.8027027,3.78125 10.2162162,3.78125 Z" id="Path"></path>
                            <path d="M14.5945946,2.40625 L13.6216216,2.40625 C13.2081081,2.40625 12.8918919,2.70416667 12.8918919,3.09375 C12.8918919,3.48333333 13.2081081,3.78125 13.6216216,3.78125 L14.5945946,3.78125 C15.0081081,3.78125 15.3243243,3.48333333 15.3243243,3.09375 C15.3243243,2.70416667 15.0081081,2.40625 14.5945946,2.40625 Z" id="Path"></path>
                            <path d="M4.37837838,4.92708333 L3.40540541,4.92708333 C2.99189189,4.92708333 2.67567568,5.225 2.67567568,5.61458333 C2.67567568,6.00416667 2.99189189,6.30208333 3.40540541,6.30208333 L4.37837838,6.30208333 C4.79189189,6.30208333 5.10810811,6.00416667 5.10810811,5.61458333 C5.10810811,5.225 4.79189189,4.92708333 4.37837838,4.92708333 Z" id="Path"></path>
                            <path d="M6.81081081,6.30208333 L8.02702703,6.30208333 C8.44054054,6.30208333 8.75675676,6.00416667 8.75675676,5.61458333 C8.75675676,5.225 8.44054054,4.92708333 8.02702703,4.92708333 L6.81081081,4.92708333 C6.3972973,4.92708333 6.08108108,5.225 6.08108108,5.61458333 C6.08108108,6.00416667 6.3972973,6.30208333 6.81081081,6.30208333 Z" id="Path"></path>
                            <path d="M10.2162162,6.30208333 L11.1891892,6.30208333 C11.6027027,6.30208333 11.9189189,6.00416667 11.9189189,5.61458333 C11.9189189,5.225 11.6027027,4.92708333 11.1891892,4.92708333 L10.2162162,4.92708333 C9.8027027,4.92708333 9.48648649,5.225 9.48648649,5.61458333 C9.48648649,6.00416667 9.8027027,6.30208333 10.2162162,6.30208333 Z" id="Path"></path>
                            <path d="M14.5945946,4.92708333 L13.6216216,4.92708333 C13.2081081,4.92708333 12.8918919,5.225 12.8918919,5.61458333 C12.8918919,6.00416667 13.2081081,6.30208333 13.6216216,6.30208333 L14.5945946,6.30208333 C15.0081081,6.30208333 15.3243243,6.00416667 15.3243243,5.61458333 C15.3243243,5.225 15.0081081,4.92708333 14.5945946,4.92708333 Z" id="Path"></path>
                        </g>
                    </g>
                </g>
            </g>
        </g>
    </g>
</svg>