<?xml version="1.0" encoding="UTF-8"?>
<svg width="14px" height="14px" viewBox="0 0 14 14" version="1.1" xmlns="http://www.w3.org/2000/svg" xmlns:xlink="http://www.w3.org/1999/xlink">
    <!-- Generator: Sketch 55.2 (78181) - https://sketchapp.com -->
    <title>icon</title>
    <desc>Created with Sketch.</desc>
    <g id="Page-1" stroke="none" stroke-width="1" fill="none" fill-rule="evenodd">
        <g id="Client-General" transform="translate(-2330.000000, -686.000000)" fill="#0033FF">
            <g id="open-copy-3" transform="translate(2300.000000, 146.000000)">
                <g id="chat">
                    <g id="typing" transform="translate(0.000000, 485.000000)">
                        <g id="attach" transform="translate(30.000000, 53.000000)">
                            <path d="M0.910784435,14.9222061 C0.323181574,14.2710971 -5.30538576e-14,13.4054708 -5.30538576e-14,12.4851978 C-5.30538576e-14,11.5643436 0.323181574,10.6987173 0.910784435,10.0476082 L6.89787506,3.34792662 C8.52007867,1.55098181 11.1595697,1.55040046 12.7817734,3.34792662 C13.5676922,4.21878503 14,5.3762477 14,6.60754149 C14,7.83883528 13.5676922,8.9968793 12.7817734,9.86715636 L7.27022857,16 L6.5808445,15.2355282 L12.0918646,9.10268453 C13.3331757,7.72663523 13.3331757,5.48844775 12.0918646,4.11239845 C10.8510782,2.73693051 8.82961946,2.73634916 7.58778377,4.11239845 L1.6012178,10.81208 C1.19776548,11.2591362 0.975840466,11.8526919 0.975840466,12.4851978 C0.975840466,13.1171225 1.19829012,13.7106782 1.6012178,14.1577343 C2.43383007,15.080914 3.78846452,15.0797513 4.62055214,14.1577343 L9.5477143,8.6581637 C9.97110315,8.18901635 9.97110315,7.42570721 9.5477143,6.95597851 C9.12432546,6.48683116 8.43494138,6.48683116 8.01155254,6.95597851 L3.56046086,11.8892925 L2.8700275,11.1242394 L7.32216847,6.19150668 C8.12540059,5.30088247 9.43386625,5.30030112 10.2381477,6.19150668 C11.0424291,7.08271224 11.0419044,8.53201131 10.2381477,9.42263553 L5.31046086,14.9222061 C4.72233335,15.5733152 3.94166098,15.9320066 3.11062265,15.9320066 C2.27958432,15.9320066 1.4983873,15.5733152 0.910784435,14.9222061 Z" id="icon"></path>
                        </g>
                    </g>
                </g>
            </g>
        </g>
    </g>
</svg>