<?xml version="1.0" encoding="UTF-8"?>
<svg width="14px" height="14px" viewBox="0 0 14 14" version="1.1" xmlns="http://www.w3.org/2000/svg" xmlns:xlink="http://www.w3.org/1999/xlink">
    <!-- Generator: Sketch 55.2 (78181) - https://sketchapp.com -->
    <title>icon</title>
    <desc>Created with Sketch.</desc>
    <g id="Page-1" stroke="none" stroke-width="1" fill="none" fill-rule="evenodd">
        <g id="Client-General" transform="translate(-914.000000, -712.000000)" fill="#000000">
            <g id="open" transform="translate(580.000000, 146.000000)">
                <g id="chat">
                    <g id="typing" transform="translate(0.000000, 547.000000)">
                        <g id="Group-7-Copy-2" transform="translate(322.000000, 11.000000)">
                            <path d="M12.9107844,20.9222061 C12.3231816,20.2710971 12,19.4054708 12,18.4851978 C12,17.5643436 12.3231816,16.6987173 12.9107844,16.0476082 L18.8978751,9.34792662 C20.5200787,7.55098181 23.1595697,7.55040046 24.7817734,9.34792662 C25.5676922,10.218785 26,11.3762477 26,12.6075415 C26,13.8388353 25.5676922,14.9968793 24.7817734,15.8671564 L19.2702286,22 L18.5808445,21.2355282 L24.0918646,15.1026845 C25.3331757,13.7266352 25.3331757,11.4884477 24.0918646,10.1123985 C22.8510782,8.73693051 20.8296195,8.73634916 19.5877838,10.1123985 L13.6012178,16.81208 C13.1977655,17.2591362 12.9758405,17.8526919 12.9758405,18.4851978 C12.9758405,19.1171225 13.1982901,19.7106782 13.6012178,20.1577343 C14.4338301,21.080914 15.7884645,21.0797513 16.6205521,20.1577343 L21.5477143,14.6581637 C21.9711032,14.1890163 21.9711032,13.4257072 21.5477143,12.9559785 C21.1243255,12.4868312 20.4349414,12.4868312 20.0115525,12.9559785 L15.5604609,17.8892925 L14.8700275,17.1242394 L19.3221685,12.1915067 C20.1254006,11.3008825 21.4338662,11.3003011 22.2381477,12.1915067 C23.0424291,13.0827122 23.0419044,14.5320113 22.2381477,15.4226355 L17.3104609,20.9222061 C16.7223334,21.5733152 15.941661,21.9320066 15.1106226,21.9320066 C14.2795843,21.9320066 13.4983873,21.5733152 12.9107844,20.9222061 Z" id="icon"></path>
                        </g>
                    </g>
                </g>
            </g>
        </g>
    </g>
</svg>