<?xml version="1.0" encoding="UTF-8"?>
<svg width="37px" height="35px" viewBox="0 0 37 35" version="1.1" xmlns="http://www.w3.org/2000/svg" xmlns:xlink="http://www.w3.org/1999/xlink">
    <!-- Generator: Sketch 55.2 (78181) - https://sketchapp.com -->
    <title>icon</title>
    <desc>Created with Sketch.</desc>
    <g id="Page-1" stroke="none" stroke-width="1" fill="none" fill-rule="evenodd">
        <g id="Client-General" transform="translate(-424.000000, -778.000000)" fill="#FFFFFF" fill-rule="nonzero">
            <g id="closed" transform="translate(405.000000, 756.000000)">
                <g id="start-button">
                    <path d="M31.7404585,56.9084337 C31.4561526,56.9084337 31.1718467,56.7985542 30.9408481,56.5787952 C30.4966202,56.1209639 30.4966202,55.3884337 30.923079,54.9306024 L38.9191827,46.5431325 L51.3042588,46.5431325 C52.1927148,46.5431325 52.9212486,45.7922892 52.9212486,44.8766265 L52.9212486,26.0139759 C52.9212486,25.1349398 52.228253,24.4207229 51.3753353,24.4207229 L23.1224357,24.4207229 C22.0918267,24.4207229 21.2744473,25.2814458 21.2744473,26.3253012 L21.2744473,44.986506 C21.2744473,45.8289157 21.9496738,46.5248193 22.7670533,46.5248193 L28.6486318,46.5248193 C29.2705509,46.5248193 29.7858554,47.0559036 29.7858554,47.6968675 C29.7858554,48.3378313 29.2705509,48.8689157 28.6486318,48.8689157 L22.7670533,48.8689157 C20.6880663,48.8689157 19,47.1291566 19,44.986506 L19,26.3253012 C19,23.9812048 20.8479884,22.0766265 23.1224357,22.0766265 L51.3575661,22.0766265 C53.4720913,22.0766265 55.1779268,23.8346988 55.1779268,26.0139759 L55.1779268,44.8583133 C55.1779268,47.0559036 53.4365531,48.8506024 51.3042588,48.8506024 L39.8787151,48.8506024 L32.5400689,56.5421687 C32.3268394,56.780241 32.0247644,56.9084337 31.7404585,56.9084337 Z" id="icon"></path>
                </g>
            </g>
        </g>
    </g>
</svg>