<?xml version="1.0" encoding="UTF-8"?>
<svg width="8" height="14" viewBox="0 0 8 14" fill="none" xmlns="http://www.w3.org/2000/svg">
    <path d="M0 7.35938C0 7.4375 0.0130208 7.51042 0.0390625 7.57812C0.0703125 7.64062 0.114583 7.70052 0.171875 7.75781L6.42188 13.6953C6.52604 13.8047 6.65365 13.8594 6.80469 13.8594C6.90365 13.8594 6.99219 13.8359 7.07031 13.7891C7.15365 13.7422 7.21875 13.6771 7.26562 13.5938C7.31771 13.5156 7.34375 13.4245 7.34375 13.3203C7.34375 13.1797 7.29167 13.0547 7.1875 12.9453L1.3125 7.35938L7.1875 1.77344C7.29167 1.66406 7.34375 1.53906 7.34375 1.39844C7.34375 1.29427 7.31771 1.20312 7.26562 1.125C7.21875 1.04167 7.15365 0.976562 7.07031 0.929688C6.99219 0.882812 6.90365 0.859375 6.80469 0.859375C6.65365 0.859375 6.52604 0.911458 6.42188 1.01562L0.171875 6.96094C0.114583 7.01823 0.0703125 7.08073 0.0390625 7.14844C0.0130208 7.21094 0 7.28125 0 7.35938Z" fill="#D8D8D8"/>
</svg>
