<?xml version="1.0" encoding="UTF-8"?>
<svg width="16px" height="9px" viewBox="0 0 16 9" version="1.1" xmlns="http://www.w3.org/2000/svg" xmlns:xlink="http://www.w3.org/1999/xlink">
    <!-- Generator: Sketch 61.2 (89653) - https://sketch.com -->
    <title>chevron-down</title>
    <desc>Created with Sketch.</desc>
    <g id="Page-1" stroke="none" stroke-width="1" fill="none" fill-rule="evenodd">
        <g id="NEW-ICONS-FINAL" transform="translate(-340.000000, -33.000000)" fill="#000000" fill-rule="nonzero">
            <path d="M347.885294,42 C348.228505,42 348.517526,41.8629442 348.77945,41.5979695 L355.219178,34.9279188 C355.426912,34.7086294 355.535294,34.4527919 355.535294,34.142132 C355.535294,33.5025381 355.038541,33 354.424373,33 C354.126321,33 353.837301,33.1279188 353.611504,33.3563452 L347.894326,39.3045685 L342.159084,33.3563452 C341.942319,33.1370558 341.662331,33 341.346215,33 C340.732047,33 340.235294,33.5025381 340.235294,34.142132 C340.235294,34.4436548 340.352709,34.7086294 340.560442,34.9279188 L347.00017,41.5979695 C347.271126,41.8720812 347.551115,42 347.885294,42 Z" id="chevron-down"></path>
        </g>
    </g>
</svg>