<?xml version="1.0" encoding="UTF-8"?>
<svg width="19px" height="18px" viewBox="0 0 19 18" version="1.1" xmlns="http://www.w3.org/2000/svg" xmlns:xlink="http://www.w3.org/1999/xlink">
    <!-- Generator: Sketch 61.2 (89653) - https://sketch.com -->
    <title>close-thin</title>
    <desc>Created with Sketch.</desc>
    <g id="Page-1" stroke="none" stroke-width="1" fill="none" fill-rule="evenodd">
        <g id="NEW-ICONS-FINAL" transform="translate(-187.000000, -29.000000)" fill="#000000" fill-rule="nonzero">
            <path d="M188.318202,46.8141299 L196.237632,38.8960637 L204.144668,46.8141299 C204.392538,47.0619567 204.801523,47.0619567 205.049392,46.8141299 C205.297261,46.5539118 205.297261,46.1573889 205.049392,45.9095621 L197.142356,38.0038872 L205.049392,30.0858209 C205.297261,29.8379941 205.297261,29.4290799 205.049392,29.1812531 C204.801523,28.9458177 204.392538,28.9458177 204.144668,29.1812531 L196.237632,37.0993194 L188.318202,29.1812531 C188.070333,28.9458177 187.673742,28.9334263 187.425872,29.1812531 C187.178003,29.4414713 187.178003,29.8379941 187.425872,30.0858209 L195.332908,38.0038872 L187.425872,45.9095621 C187.178003,46.1573889 187.165609,46.5663031 187.425872,46.8141299 C187.673742,47.0619567 188.070333,47.0619567 188.318202,46.8141299 Z" id="close-thin"></path>
        </g>
    </g>
</svg>