<?xml version="1.0" encoding="UTF-8"?>
<svg width="19px" height="18px" viewBox="0 0 19 18" version="1.1" xmlns="http://www.w3.org/2000/svg" xmlns:xlink="http://www.w3.org/1999/xlink">
    <!-- Generator: Sketch 61.2 (89653) - https://sketch.com -->
    <title>close-thick</title>
    <desc>Created with Sketch.</desc>
    <g id="Page-1" stroke="none" stroke-width="1" fill="none" fill-rule="evenodd">
        <g id="NEW-ICONS-FINAL" transform="translate(-85.000000, -29.000000)" fill="#000000" fill-rule="nonzero">
            <path d="M102.675976,46.4407262 C103.41026,45.7065002 103.421557,44.4865553 102.709866,43.7749208 L96.9372586,38.0027743 L102.709866,32.2306278 C103.421557,31.5189933 103.41026,30.2877527 102.675976,29.5535266 C101.941691,28.8193005 100.710352,28.8193005 99.9986608,29.530935 L94.2373503,35.3030815 L88.4534464,29.5196392 C87.7756451,28.8418921 86.5104162,28.8080047 85.7761315,29.5422308 C85.0531435,30.2764569 85.0757369,31.5415849 85.7535381,32.219332 L91.5261453,38.0027743 L85.7535381,43.7749208 C85.0757369,44.4526679 85.0418468,45.7177959 85.7761315,46.452022 C86.5104162,47.1862481 87.7756451,47.1523607 88.4534464,46.4746136 L94.2373503,40.7024671 L99.9986608,46.4746136 C100.710352,47.1862481 101.952988,47.1749523 102.675976,46.4407262 Z" id="close-thick"></path>
        </g>
    </g>
</svg>