<?xml version="1.0" encoding="UTF-8"?>
<svg width="18px" height="19px" viewBox="0 0 18 19" version="1.1" xmlns="http://www.w3.org/2000/svg" xmlns:xlink="http://www.w3.org/1999/xlink">
    <!-- Generator: Sketch 61.2 (89653) - https://sketch.com -->
    <title>file</title>
    <desc>Created with Sketch.</desc>
    <g id="Page-1" stroke="none" stroke-width="1" fill="none" fill-rule="evenodd">
        <g id="NEW-ICONS-FINAL" transform="translate(-293.000000, -74.000000)" fill="#000000" fill-rule="nonzero">
            <path d="M302.064362,91.4230396 L308.730699,84.7527643 C308.976899,84.5158938 308.96743,84.0895268 308.730699,83.862131 C308.493969,83.6063108 308.10573,83.6442101 307.85953,83.8810807 L301.221601,90.5229314 C299.50767,92.2473491 297.197178,92.0578527 295.719978,90.5703055 C294.233309,89.101708 294.043925,86.7898512 295.767324,85.0654335 L304.744154,76.0927764 C305.804708,75.0221214 307.338723,74.9463228 308.304584,75.9222296 C309.270445,76.8886615 309.194692,78.4235828 308.134138,79.4847629 L299.365632,88.2679236 C298.901639,88.7416647 298.342955,88.6090172 298.002063,88.2868732 C297.680109,87.9457796 297.557009,87.3962399 298.021001,86.9224988 L304.204408,80.7449143 C304.450608,80.4890941 304.469546,80.1290509 304.232815,79.8921803 C303.996085,79.6647845 303.636254,79.6742594 303.380585,79.9300796 L297.187709,86.1266136 C296.288132,87.0361966 296.326009,88.3816215 297.121424,89.1680317 C297.964186,90.011291 299.252001,90.011291 300.161047,89.101708 L308.96743,80.2901228 C310.624545,78.6415037 310.491976,76.4812441 309.099999,75.0789703 C307.717492,73.6956462 305.5301,73.5440491 303.872985,75.202143 L294.867748,84.2221743 C292.670886,86.4203331 292.86974,89.5186002 294.820402,91.4704137 C296.771063,93.4127523 299.867501,93.6211984 302.064362,91.4230396 Z" id="file"></path>
        </g>
    </g>
</svg>