<?xml version="1.0" encoding="UTF-8"?>
<svg width="23px" height="21px" viewBox="0 0 23 21" version="1.1" xmlns="http://www.w3.org/2000/svg" xmlns:xlink="http://www.w3.org/1999/xlink">
    <!-- Generator: Sketch 61.2 (89653) - https://sketch.com -->
    <title>logo</title>
    <desc>Created with Sketch.</desc>
    <g id="Page-1" stroke="none" stroke-width="1" fill="none" fill-rule="evenodd">
        <g id="NEW-ICONS-FINAL" transform="translate(-30.000000, -27.000000)" fill="#000000" fill-rule="nonzero">
            <path d="M37.8304056,48 C37.6556686,48 37.4809315,47.9337539 37.3389576,47.8012618 C37.0659309,47.5252366 37.0659309,47.0835961 37.3280365,46.8075709 L42.2425171,41.7507886 L49.8545014,41.7507886 C50.4005548,41.7507886 50.8483185,41.2981073 50.8483185,40.7460568 L50.8483185,29.373817 C50.8483185,28.8438486 50.4223969,28.4132492 49.8981856,28.4132492 L32.5336878,28.4132492 C31.9002658,28.4132492 31.3978967,28.9321767 31.3978967,29.5615142 L31.3978967,40.8123029 C31.3978967,41.3201893 31.8128973,41.7397476 32.3152664,41.7397476 L35.9301399,41.7397476 C36.3123772,41.7397476 36.6290882,42.0599369 36.6290882,42.4463723 C36.6290882,42.8328075 36.3123772,43.1529969 35.9301399,43.1529969 L32.3152664,43.1529969 C31.0375014,43.1529969 30,42.104101 30,40.8123029 L30,29.5615142 C30,28.148265 31.1357911,27 32.5336878,27 L49.8872645,27 C51.1868716,27 52.2352941,28.0599369 52.2352941,29.373817 L52.2352941,40.7350157 C52.2352941,42.0599369 51.1650295,43.1419559 49.8545014,43.1419559 L42.8322547,43.1419559 L38.3218537,47.7791798 C38.1908009,47.922713 38.0051427,48 37.8304056,48 Z" id="logo"></path>
        </g>
    </g>
</svg>