<?xml version="1.0" encoding="UTF-8"?>
<svg width="17px" height="14px" viewBox="0 0 17 14" version="1.1" xmlns="http://www.w3.org/2000/svg" xmlns:xlink="http://www.w3.org/1999/xlink">
    <!-- Generator: Sketch 61.2 (89653) - https://sketch.com -->
    <title>reply-right</title>
    <desc>Created with Sketch.</desc>
    <g id="Page-1" stroke="none" stroke-width="1" fill="none" fill-rule="evenodd">
        <g id="NEW-ICONS-FINAL" transform="translate(-338.000000, -123.000000)" fill="#000000" fill-rule="nonzero">
            <path d="M347.366805,137 C347.614464,137 347.817898,136.870928 347.994797,136.716042 L354.513528,130.821758 C354.92924,130.434542 355,130.219422 355,129.995698 C355,129.780578 354.938085,129.565458 354.513528,129.178242 L347.994797,123.283958 C347.809053,123.129072 347.614464,123 347.366805,123 C347.013007,123 346.827263,123.258144 346.827263,123.585126 L346.827263,127.130301 L346.455775,127.130301 C341.387617,127.130301 338,129.883835 338,136.406269 C338,136.776275 338.229969,137 338.513007,137 C338.778356,137 338.937565,136.879533 339.087929,136.543946 C340.220083,133.971112 342.537461,132.947142 346.455775,132.947142 L346.827263,132.947142 L346.827263,136.414874 C346.827263,136.741856 347.013007,137 347.366805,137 Z" id="reply-right"></path>
        </g>
    </g>
</svg>