<?xml version="1.0" encoding="UTF-8"?>
<svg width="17px" height="14px" viewBox="0 0 17 14" version="1.1" xmlns="http://www.w3.org/2000/svg" xmlns:xlink="http://www.w3.org/1999/xlink">
    <title>screenshot</title>
    <g id="Page-1" stroke="none" stroke-width="1" fill="none" fill-rule="evenodd">
        <g id="Artboard" transform="translate(-909.000000, -658.000000)" fill="#000000" fill-rule="nonzero">
            <g id="Widget-1" transform="translate(625.000000, 91.000000)">
                <g id="screenshot" transform="translate(283.000000, 566.000000)">
                    <path d="M15.6611328,14.3671875 C17.0898438,14.3671875 17.8076172,13.65625 17.8076172,12.2480469 L17.8076172,5.09082031 C17.8076172,3.68261719 17.0898438,2.97851562 15.6611328,2.97851562 L14.0683594,2.97851562 C13.5351562,2.97851562 13.3642578,2.86914062 13.0634766,2.52734375 L12.5097656,1.91210938 C12.1679688,1.53613281 11.8193359,1.33105469 11.1152344,1.33105469 L8.38769531,1.33105469 C7.68359375,1.33105469 7.33496094,1.53613281 6.99316406,1.91210938 L6.44628906,2.52734375 C6.14550781,2.86230469 5.97460938,2.97851562 5.44140625,2.97851562 L3.88964844,2.97851562 C2.4609375,2.97851562 1.74316406,3.68261719 1.74316406,5.09082031 L1.74316406,12.2480469 C1.74316406,13.65625 2.4609375,14.3671875 3.88964844,14.3671875 L15.6611328,14.3671875 Z M15.6474609,13.2666016 L3.90332031,13.2666016 C3.23339844,13.2666016 2.84375,12.9042969 2.84375,12.1933594 L2.84375,5.15234375 C2.84375,4.44140625 3.23339844,4.07910156 3.90332031,4.07910156 L5.71484375,4.07910156 C6.33007812,4.07910156 6.65820312,3.96289062 7,3.58007812 L7.53320312,2.97851562 C7.9296875,2.54101562 8.12792969,2.43164062 8.72949219,2.43164062 L10.7734375,2.43164062 C11.3818359,2.43164062 11.5800781,2.54101562 11.9697266,2.97851562 L12.5097656,3.58007812 C12.8447266,3.96289062 13.1796875,4.07910156 13.7949219,4.07910156 L15.6474609,4.07910156 C16.3242188,4.07910156 16.7070312,4.44140625 16.7070312,5.15234375 L16.7070312,12.1933594 C16.7070312,12.9042969 16.3242188,13.2666016 15.6474609,13.2666016 Z M9.77539062,12.1796875 C11.8466797,12.1796875 13.5078125,10.5185547 13.5078125,8.44042969 C13.5078125,6.36230469 11.8466797,4.70117188 9.77539062,4.70117188 C7.7109375,4.70117188 6.04980469,6.36230469 6.04980469,8.44042969 C6.04980469,10.5185547 7.7109375,12.1796875 9.77539062,12.1796875 Z M14.6904297,6.77246094 C15.1552734,6.77246094 15.5380859,6.39648438 15.5380859,5.93164062 C15.5380859,5.45996094 15.1552734,5.08398438 14.6904297,5.08398438 C14.2255859,5.08398438 13.8427734,5.45996094 13.8427734,5.93164062 C13.8427734,6.39648438 14.2255859,6.77246094 14.6904297,6.77246094 Z M9.77539062,11.140625 C8.29199219,11.140625 7.08203125,9.9375 7.08203125,8.44042969 C7.08203125,6.94335938 8.28515625,5.74023438 9.77539062,5.74023438 C11.265625,5.74023438 12.4755859,6.94335938 12.4755859,8.44042969 C12.4755859,9.9375 11.265625,11.140625 9.77539062,11.140625 Z"></path>
                </g>
            </g>
        </g>
    </g>
</svg>