<?xml version="1.0" encoding="UTF-8"?>
<svg width="20px" height="14px" viewBox="0 0 20 14" version="1.1" xmlns="http://www.w3.org/2000/svg" xmlns:xlink="http://www.w3.org/1999/xlink">
    <title>Group 15</title>
    <g id="Page-1" stroke="none" stroke-width="1" fill="none" fill-rule="evenodd">
        <g id="Graphik-Copy-2" transform="translate(-810.000000, -613.000000)" fill="#000000" fill-rule="nonzero">
            <g id="Chat" transform="translate(537.000000, 46.000000)">
                <g id="Group-8">
                    <g id="Group-4" transform="translate(0.000000, 547.000000)">
                        <g id="Group-7-Copy-3" transform="translate(264.000000, 11.000000)">
                            <g id="Group-15" transform="translate(9.000000, 9.000000)">
                                <path d="M17,0 C18.6568542,0 20,1.34314575 20,3 L20,8 C20,9.65685425 18.6568542,11 17,11 L3,11 C1.34314575,11 0,9.65685425 0,8 L0,3 C0,1.34314575 1.34314575,0 3,0 L17,0 Z M17,1 L3,1 C1.9456382,1 1.08183488,1.81587779 1.00548574,2.85073766 L1,3 L1,8 C1,9.0543618 1.81587779,9.91816512 2.85073766,9.99451426 L3,10 L17,10 C18.0543618,10 18.9181651,9.18412221 18.9945143,8.14926234 L19,8 L19,3 C19,1.9456382 18.1841222,1.08183488 17.1492623,1.00548574 L17,1 Z" id="Rectangle"></path>
                                <path d="M14.5,13 C14.7761424,13 15,13.2238576 15,13.5 C15,13.7761424 14.7761424,14 14.5,14 L5.5,14 C5.22385763,14 5,13.7761424 5,13.5 C5,13.2238576 5.22385763,13 5.5,13 L14.5,13 Z" id="Rectangle-Copy-2"></path>
                            </g>
                        </g>
                    </g>
                </g>
            </g>
        </g>
    </g>
</svg>