<?xml version="1.0" encoding="UTF-8"?>
<svg width="26px" height="19px" viewBox="0 0 26 19" version="1.1" xmlns="http://www.w3.org/2000/svg" xmlns:xlink="http://www.w3.org/1999/xlink">
    <!-- Generator: Sketch 61.2 (89653) - https://sketch.com -->
    <title>screenshot</title>
    <desc>Created with Sketch.</desc>
    <g id="Page-1" stroke="none" stroke-width="1" fill="none" fill-rule="evenodd">
        <g id="NEW-ICONS-FINAL" transform="translate(-234.000000, -74.000000)" fill="#000000" fill-rule="nonzero">
            <path d="M256.954538,89.6699407 C258.503716,89.6699407 259.288235,88.9136695 259.288235,87.3103744 L259.288235,76.3595664 C259.288235,74.7562713 258.503716,74 256.954538,74 L237.023767,74 C235.474589,74 234.7,74.7562713 234.7,76.3595664 L234.7,87.3103744 C234.7,88.9136695 235.474589,89.6699407 237.023767,89.6699407 L256.954538,89.6699407 Z M256.934676,88.2784016 L237.053559,88.2784016 C236.378276,88.2784016 236.070427,87.9859767 236.070427,87.2801235 L236.070427,76.3797336 C236.070427,75.683964 236.378276,75.3915391 237.053559,75.3915391 L256.934676,75.3915391 C257.609959,75.3915391 257.907878,75.683964 257.907878,76.3797336 L257.907878,87.2801235 C257.907878,87.9859767 257.609959,88.2784016 256.934676,88.2784016 Z M252.952495,93 C253.409303,93 253.776737,92.6771425 253.776737,92.2583003 C253.776737,91.848184 253.409303,91.5253265 252.952495,91.5253265 L241.005949,91.5253265 C240.54914,91.5253265 240.171776,91.848184 240.171776,92.2583003 C240.171776,92.6771425 240.54914,93 241.005949,93 L252.952495,93 Z" id="screenshot"></path>
        </g>
    </g>
</svg>