<?xml version="1.0" encoding="UTF-8"?>
<svg width="18px" height="18px" viewBox="0 0 18 18" version="1.1" xmlns="http://www.w3.org/2000/svg" xmlns:xlink="http://www.w3.org/1999/xlink">
    <!-- Generator: Sketch 61.2 (89653) - https://sketch.com -->
    <title>search</title>
    <desc>Created with Sketch.</desc>
    <g id="Page-1" stroke="none" stroke-width="1" fill="none" fill-rule="evenodd">
        <g id="NEW-ICONS-FINAL" transform="translate(-132.000000, -215.000000)" fill="#000000" fill-rule="nonzero">
            <path d="M148.535156,232.962891 C149.101562,232.962891 149.501953,232.523438 149.501953,231.976562 C149.501953,231.722656 149.414062,231.478516 149.228516,231.292969 L144.746094,226.800781 C145.673828,225.609375 146.230469,224.105469 146.230469,222.474609 C146.230469,218.597656 143.056641,215.423828 139.179688,215.423828 C135.292969,215.423828 132.119141,218.597656 132.119141,222.474609 C132.119141,226.361328 135.292969,229.535156 139.179688,229.535156 C140.732422,229.535156 142.167969,229.027344 143.339844,228.167969 L147.841797,232.679688 C148.027344,232.865234 148.271484,232.962891 148.535156,232.962891 Z M139.179688,228.148438 C136.074219,228.148438 133.515625,225.580078 133.515625,222.474609 C133.515625,219.369141 136.074219,216.810547 139.179688,216.810547 C142.285156,216.810547 144.84375,219.369141 144.84375,222.474609 C144.84375,225.580078 142.285156,228.148438 139.179688,228.148438 Z" id="search"></path>
        </g>
    </g>
</svg>