<?xml version="1.0" encoding="UTF-8"?>
<svg width="24px" height="18px" viewBox="0 0 24 18" version="1.1" xmlns="http://www.w3.org/2000/svg" xmlns:xlink="http://www.w3.org/1999/xlink">
    <!-- Generator: Sketch 61.2 (89653) - https://sketch.com -->
    <title>speaker</title>
    <desc>Created with Sketch.</desc>
    <g id="Page-1" stroke="none" stroke-width="1" fill="none" fill-rule="evenodd">
        <g id="NEW-ICONS-FINAL" transform="translate(-30.000000, -121.000000)" fill="#000000" fill-rule="nonzero">
            <path d="M41.3578063,139 C42.0053074,139 42.4617426,138.539535 42.4617426,137.911628 L42.4617426,122.151163 C42.4617426,121.523256 42.0053074,121 41.3471915,121 C40.8801415,121 40.5723131,121.219767 40.0734188,121.659302 L35.3073861,125.845349 C35.2436975,125.918605 35.1481645,125.95 35.0420168,125.95 L32.0168067,125.95 C30.6687307,125.95 30,126.609302 30,128.011628 L30,132.030233 C30,133.432558 30.6687307,134.09186 32.0168067,134.09186 L35.0420168,134.09186 C35.1481645,134.09186 35.2436975,134.133721 35.3073861,134.196512 L40.0734188,138.393023 C40.529854,138.801163 40.9013711,139 41.3578063,139 Z M40.8482972,137.116279 C40.7952234,137.116279 40.7315347,137.084884 40.6678461,137.022093 L36.1353383,133.003488 C35.8911986,132.783721 35.6895179,132.731395 35.4029191,132.731395 L32.0698806,132.731395 C31.6559045,132.731395 31.4754533,132.553488 31.4754533,132.145349 L31.4754533,127.906977 C31.4754533,127.488372 31.6559045,127.310465 32.0698806,127.310465 L35.4029191,127.310465 C35.6895179,127.310465 35.8805838,127.25814 36.1353383,127.038372 L40.6572313,122.977907 C40.7209199,122.925581 40.7739938,122.883721 40.8482972,122.883721 C40.9332154,122.883721 40.996904,122.946512 40.996904,123.030233 L40.996904,136.959302 C40.996904,137.053488 40.9438302,137.116279 40.8482972,137.116279 Z M51.8982751,136.75 C53.2357364,134.939535 54,132.532558 54,129.989535 C54,127.446512 53.2569659,125.02907 51.8982751,123.239535 C51.6329058,122.883721 51.2083149,122.789535 50.8474126,123.030233 C50.5077399,123.260465 50.4546661,123.7 50.7306502,124.087209 C51.8239717,125.698837 52.5351614,127.77093 52.5351614,129.989535 C52.5351614,132.218605 51.855816,134.322093 50.7200354,135.912791 C50.4546661,136.289535 50.5077399,136.72907 50.8474126,136.959302 C51.2083149,137.189535 51.6435206,137.105814 51.8982751,136.75 Z M47.8858912,134.09186 C48.6713843,133.066279 49.1490491,131.548837 49.1490491,129.989535 C49.1490491,128.430233 48.6713843,126.933721 47.8858912,125.887209 C47.6205219,125.54186 47.1853162,125.468605 46.8668731,125.688372 C46.4741265,125.95 46.4210526,126.410465 46.7076515,126.797674 C47.3020787,127.582558 47.6735958,128.775581 47.6735958,129.989535 C47.6735958,131.213953 47.291464,132.406977 46.6970367,133.212791 C46.4210526,133.589535 46.4741265,134.02907 46.8668731,134.301163 C47.1747015,134.510465 47.6205219,134.447674 47.8858912,134.09186 Z" id="speaker"></path>
        </g>
    </g>
</svg>