<?xml version="1.0" encoding="UTF-8"?>
<svg width="17px" height="18px" viewBox="0 0 17 18" version="1.1" xmlns="http://www.w3.org/2000/svg" xmlns:xlink="http://www.w3.org/1999/xlink">
    <!-- Generator: Sketch 61.2 (89653) - https://sketch.com -->
    <title>speaker-mute</title>
    <desc>Created with Sketch.</desc>
    <g id="Page-1" stroke="none" stroke-width="1" fill="none" fill-rule="evenodd">
        <g id="NEW-ICONS-FINAL" transform="translate(-85.000000, -121.000000)" fill="#000000" fill-rule="nonzero">
            <path d="M98.0294181,132.43506 L98.0294181,122.096649 C98.0294181,121.498477 97.6109195,121 97.007503,121 C96.5792718,121 96.2970286,121.20936 95.8395999,121.628081 L91.4599636,125.625865 L92.394286,126.592911 L96.3748888,122.884243 C96.4235514,122.834395 96.4819466,122.794517 96.5500743,122.794517 C96.6279345,122.794517 96.6863296,122.854334 96.6863296,122.93409 L96.6863296,131.049294 L98.0294181,132.43506 Z M101.688848,138.805594 C101.932161,138.546386 101.941893,138.127665 101.688848,137.878427 L86.1070747,121.927167 C85.8540291,121.667959 85.445263,121.657989 85.1824848,121.927167 C84.9391717,122.176405 84.9391717,122.605096 85.1824848,122.864304 L100.77399,138.805594 C101.027036,139.064802 101.435802,139.064802 101.688848,138.805594 Z M97.0172355,138.147605 C97.3870714,138.147605 97.7082448,137.948214 97.9028953,137.579341 L96.8809801,136.582387 L92.1801705,132.395181 C91.9757874,132.21573 91.8492646,132.175852 91.5962189,132.175852 L88.5012759,132.175852 C88.1217075,132.175852 87.946522,132.006369 87.946522,131.617557 L87.946522,127.47023 L86.9440719,126.323733 C86.7104913,126.702575 86.6034335,127.161174 86.6034335,127.729438 L86.6034335,131.507893 C86.6034335,132.843811 87.2165826,133.471891 88.4526133,133.471891 L91.226383,133.471891 C91.3237082,133.471891 91.411301,133.51177 91.4794286,133.571587 L95.8395999,137.569371 C96.2580985,137.958183 96.5987369,138.147605 97.0172355,138.147605 Z" id="speaker-mute"></path>
        </g>
    </g>
</svg>