<?xml version="1.0" encoding="UTF-8"?>
<svg width="20px" height="20px" viewBox="0 0 20 20" version="1.1" xmlns="http://www.w3.org/2000/svg" xmlns:xlink="http://www.w3.org/1999/xlink">
    <!-- Generator: Sketch 61.2 (89653) - https://sketch.com -->
    <title>spinner-xs</title>
    <desc>Created with Sketch.</desc>
    <g id="Page-1" stroke="none" stroke-width="1" fill="none" fill-rule="evenodd">
        <g id="NEW-ICONS-FINAL" transform="translate(-188.000000, -120.000000)" fill="#000000" fill-rule="nonzero">
            <path d="M203.425659,121.598508 C201.821763,120.560675 199.951879,120 198,120 C192.477153,120 188,124.477153 188,130 C188,135.522847 192.477153,140 198,140 C203.522847,140 208,135.522847 208,130 C208,128.780284 207.781361,127.590017 207.359794,126.472102 L206.546158,126.778926 C206.930884,127.799144 207.130435,128.885496 207.130435,130 C207.130435,135.0426 203.0426,139.130435 198,139.130435 C192.9574,139.130435 188.869565,135.0426 188.869565,130 C188.869565,124.9574 192.9574,120.869565 198,120.869565 C199.782986,120.869565 201.489054,121.381121 202.953261,122.328565 L203.425659,121.598508 Z" id="spinner-xs"></path>
        </g>
    </g>
</svg>