<?xml version="1.0" encoding="UTF-8"?>
<svg width="24px" height="14px" viewBox="0 0 24 14" version="1.1" xmlns="http://www.w3.org/2000/svg" xmlns:xlink="http://www.w3.org/1999/xlink">
    <!-- Generator: Sketch 61.2 (89653) - https://sketch.com -->
    <title>typing</title>
    <desc>Created with Sketch.</desc>
    <g id="Page-1" stroke="none" stroke-width="1" fill="none" fill-rule="evenodd">
        <g id="NEW-ICONS-FINAL" transform="translate(-133.000000, -123.000000)" fill="#000000" fill-rule="nonzero">
            <path d="M154.40322,136.2 C156.128416,136.2 157,135.336615 157,133.654349 L157,125.554552 C157,123.863385 156.128416,123 154.40322,123 L135.605766,123 C133.871584,123 133,123.854484 133,125.554552 L133,133.654349 C133,135.345516 133.871584,136.2 135.605766,136.2 L154.40322,136.2 Z M154.376264,134.971679 L135.623736,134.971679 C134.734182,134.971679 134.239985,134.499933 134.239985,133.592043 L134.239985,125.616858 C134.239985,124.700067 134.734182,124.237222 135.623736,124.237222 L154.376264,124.237222 C155.256833,124.237222 155.760015,124.700067 155.760015,125.616858 L155.760015,133.592043 C155.760015,134.499933 155.256833,134.971679 154.376264,134.971679 Z M153.477724,127.521645 C153.711344,127.521645 153.819169,127.414835 153.819169,127.183412 L153.819169,126.578152 C153.819169,126.35563 153.711344,126.239919 153.477724,126.239919 L152.866717,126.239919 C152.633096,126.239919 152.525271,126.35563 152.525271,126.578152 L152.525271,127.183412 C152.525271,127.414835 152.633096,127.521645 152.866717,127.521645 L153.477724,127.521645 Z M150.746162,127.521645 C150.979783,127.521645 151.087608,127.414835 151.087608,127.183412 L151.087608,126.578152 C151.087608,126.35563 150.979783,126.239919 150.746162,126.239919 L150.135155,126.239919 C149.901535,126.239919 149.79371,126.35563 149.79371,126.578152 L149.79371,127.183412 C149.79371,127.414835 149.901535,127.521645 150.135155,127.521645 L150.746162,127.521645 Z M148.014601,127.521645 C148.248222,127.521645 148.356046,127.414835 148.356046,127.183412 L148.356046,126.578152 C148.356046,126.35563 148.248222,126.239919 148.014601,126.239919 L147.403594,126.239919 C147.169974,126.239919 147.062149,126.35563 147.062149,126.578152 L147.062149,127.183412 C147.062149,127.414835 147.169974,127.521645 147.403594,127.521645 L148.014601,127.521645 Z M145.28304,127.521645 C145.51666,127.521645 145.624485,127.414835 145.624485,127.183412 L145.624485,126.578152 C145.624485,126.35563 145.51666,126.239919 145.28304,126.239919 L144.672033,126.239919 C144.438413,126.239919 144.330588,126.35563 144.330588,126.578152 L144.330588,127.183412 C144.330588,127.414835 144.438413,127.521645 144.672033,127.521645 L145.28304,127.521645 Z M142.551479,127.521645 C142.776114,127.521645 142.892924,127.414835 142.892924,127.183412 L142.892924,126.578152 C142.892924,126.35563 142.776114,126.239919 142.551479,126.239919 L141.940472,126.239919 C141.706851,126.239919 141.599027,126.35563 141.599027,126.578152 L141.599027,127.183412 C141.599027,127.414835 141.706851,127.521645 141.940472,127.521645 L142.551479,127.521645 Z M139.819918,127.521645 C140.044553,127.521645 140.152377,127.414835 140.152377,127.183412 L140.152377,126.578152 C140.152377,126.35563 140.044553,126.239919 139.819918,126.239919 L139.208911,126.239919 C138.97529,126.239919 138.867465,126.35563 138.867465,126.578152 L138.867465,127.183412 C138.867465,127.414835 138.97529,127.521645 139.208911,127.521645 L139.819918,127.521645 Z M137.079371,127.521645 C137.312991,127.521645 137.420816,127.414835 137.420816,127.183412 L137.420816,126.578152 C137.420816,126.35563 137.312991,126.239919 137.079371,126.239919 L136.477349,126.239919 C136.243729,126.239919 136.135904,126.35563 136.135904,126.578152 L136.135904,127.183412 C136.135904,127.414835 136.243729,127.521645 136.477349,127.521645 L137.079371,127.521645 Z M142.551479,130.227512 C142.776114,130.227512 142.892924,130.120701 142.892924,129.889278 L142.892924,129.284019 C142.892924,129.061497 142.776114,128.945786 142.551479,128.945786 L141.940472,128.945786 C141.706851,128.945786 141.599027,129.061497 141.599027,129.284019 L141.599027,129.889278 C141.599027,130.120701 141.706851,130.227512 141.940472,130.227512 L142.551479,130.227512 Z M145.28304,130.227512 C145.51666,130.227512 145.624485,130.120701 145.624485,129.889278 L145.624485,129.284019 C145.624485,129.061497 145.51666,128.945786 145.28304,128.945786 L144.672033,128.945786 C144.438413,128.945786 144.330588,129.061497 144.330588,129.284019 L144.330588,129.889278 C144.330588,130.120701 144.438413,130.227512 144.672033,130.227512 L145.28304,130.227512 Z M148.014601,130.227512 C148.248222,130.227512 148.356046,130.120701 148.356046,129.889278 L148.356046,129.284019 C148.356046,129.061497 148.248222,128.945786 148.014601,128.945786 L147.403594,128.945786 C147.169974,128.945786 147.062149,129.061497 147.062149,129.284019 L147.062149,129.889278 C147.062149,130.120701 147.169974,130.227512 147.403594,130.227512 L148.014601,130.227512 Z M150.746162,130.227512 C150.979783,130.227512 151.087608,130.120701 151.087608,129.889278 L151.087608,129.284019 C151.087608,129.061497 150.979783,128.945786 150.746162,128.945786 L150.135155,128.945786 C149.901535,128.945786 149.79371,129.061497 149.79371,129.284019 L149.79371,129.889278 C149.79371,130.120701 149.901535,130.227512 150.135155,130.227512 L150.746162,130.227512 Z M139.819918,130.227512 C140.044553,130.227512 140.152377,130.120701 140.152377,129.889278 L140.152377,129.284019 C140.152377,129.061497 140.044553,128.945786 139.819918,128.945786 L139.208911,128.945786 C138.97529,128.945786 138.867465,129.061497 138.867465,129.284019 L138.867465,129.889278 C138.867465,130.120701 138.97529,130.227512 139.208911,130.227512 L139.819918,130.227512 Z M153.477724,130.227512 C153.711344,130.227512 153.819169,130.120701 153.819169,129.889278 L153.819169,129.284019 C153.819169,129.061497 153.711344,128.945786 153.477724,128.945786 L152.866717,128.945786 C152.633096,128.945786 152.525271,129.061497 152.525271,129.284019 L152.525271,129.889278 C152.525271,130.120701 152.633096,130.227512 152.866717,130.227512 L153.477724,130.227512 Z M137.079371,130.227512 C137.312991,130.227512 137.420816,130.120701 137.420816,129.889278 L137.420816,129.284019 C137.420816,129.061497 137.312991,128.945786 137.079371,128.945786 L136.477349,128.945786 C136.243729,128.945786 136.135904,129.061497 136.135904,129.284019 L136.135904,129.889278 C136.135904,130.120701 136.243729,130.227512 136.477349,130.227512 L137.079371,130.227512 Z M150.746162,132.933378 C150.979783,132.933378 151.087608,132.836766 151.087608,132.627439 L151.087608,132.079968 C151.087608,131.878692 150.979783,131.78208 150.746162,131.78208 L139.208911,131.78208 C138.97529,131.78208 138.867465,131.878692 138.867465,132.079968 L138.867465,132.627439 C138.867465,132.836766 138.97529,132.933378 139.208911,132.933378 L150.746162,132.933378 Z M153.477724,132.933378 C153.711344,132.933378 153.819169,132.826568 153.819169,132.595145 L153.819169,131.989885 C153.819169,131.767363 153.711344,131.660553 153.477724,131.660553 L152.866717,131.660553 C152.633096,131.660553 152.525271,131.767363 152.525271,131.989885 L152.525271,132.595145 C152.525271,132.826568 152.633096,132.933378 152.866717,132.933378 L153.477724,132.933378 Z M137.079371,132.933378 C137.312991,132.933378 137.420816,132.826568 137.420816,132.595145 L137.420816,131.989885 C137.420816,131.767363 137.312991,131.660553 137.079371,131.660553 L136.477349,131.660553 C136.243729,131.660553 136.135904,131.767363 136.135904,131.989885 L136.135904,132.595145 C136.135904,132.826568 136.243729,132.933378 136.477349,132.933378 L137.079371,132.933378 Z" id="typing"></path>
        </g>
    </g>
</svg>